<svg xmlns="http://www.w3.org/2000/svg" width="48" height="60" viewBox="0 0 40 50" fill="none">
  <defs>
    <linearGradient id="hg1" x1="0" y1="0" x2="0.6" y2="1">
      <stop offset="0%" stop-color="#fde68a"/>
      <stop offset="35%" stop-color="#f59e0b"/>
      <stop offset="100%" stop-color="#92400e"/>
    </linearGradient>
    <linearGradient id="hg2" x1="0" y1="0" x2="0" y2="1">
      <stop offset="0%" stop-color="#fef9c3"/>
      <stop offset="100%" stop-color="#f59e0b"/>
    </linearGradient>
    <linearGradient id="hgrim" x1="0" y1="0" x2="1" y2="0">
      <stop offset="0%" stop-color="#92400e"/>
      <stop offset="50%" stop-color="#f59e0b"/>
      <stop offset="100%" stop-color="#92400e"/>
    </linearGradient>
  </defs>

  <!-- Plume crest -->
  <rect x="17" y="0" width="6" height="4" rx="3" fill="url(#hg2)" opacity="0.98"/>
  <path d="M20 3 C13 4 9 9 10 17" stroke="url(#hg2)" stroke-width="2.5" stroke-linecap="round" fill="none"/>
  <path d="M20 3 C17 8 17 13 18 18" stroke="url(#hg2)" stroke-width="1.8" stroke-linecap="round" fill="none" opacity="0.75"/>
  <path d="M20 3 C23 6 24 10 23 16" stroke="url(#hg2)" stroke-width="1.2" stroke-linecap="round" fill="none" opacity="0.45"/>

  <!-- Main dome -->
  <path d="M4 24 C4 11 9 3 20 3 C31 3 36 11 36 24 L36 29 C36 33 32 36 20 36 C8 36 4 33 4 29 Z" fill="url(#hg1)" opacity="0.97"/>

  <!-- Cheek plates -->
  <path d="M4 27 L4 37 C4 40 7 43 10 43 L30 43 C33 43 36 40 36 37 L36 27" fill="url(#hg1)" opacity="0.68"/>

  <!-- Neck guard -->
  <rect x="4" y="41" width="32" height="5" rx="2" fill="url(#hgrim)" opacity="0.85"/>

  <!-- Face cutout T-shape -->
  <rect x="8" y="18" width="24" height="4" rx="2" fill="#08080f"/>
  <rect x="18" y="18" width="4" height="18" rx="2" fill="#08080f"/>
  <rect x="8"  y="22" width="8" height="14" rx="2" fill="#08080f"/>
  <rect x="24" y="22" width="8" height="14" rx="2" fill="#08080f"/>

  <!-- Eye glow -->
  <rect x="9"    y="19" width="7.5" height="2.5" rx="1.2" fill="url(#hg2)" opacity="0.9"/>
  <rect x="23.5" y="19" width="7.5" height="2.5" rx="1.2" fill="url(#hg2)" opacity="0.9"/>

  <!-- Dome edge trim -->
  <path d="M4 24 C4 11 9 3 20 3 C31 3 36 11 36 24" stroke="rgba(254,243,199,0.18)" stroke-width="1" fill="none"/>

  <!-- Highlight glint -->
  <path d="M10 8 C12 6 15 4 18 4" stroke="rgba(255,255,255,0.38)" stroke-width="1.8" stroke-linecap="round"/>

  <!-- Rivets -->
  <circle cx="6"  cy="30" r="1.2" fill="rgba(255,255,255,0.22)"/>
  <circle cx="34" cy="30" r="1.2" fill="rgba(255,255,255,0.22)"/>
  <circle cx="6"  cy="38" r="1"   fill="rgba(255,255,255,0.18)"/>
  <circle cx="34" cy="38" r="1"   fill="rgba(255,255,255,0.18)"/>
</svg>
